<svg id="Layer_1" data-name="Layer 1" xmlns="http://www.w3.org/2000/svg" viewBox="0 0 193.81 193.82">
  <title>GreenNode</title>
  <path d="M102.81,186.5H86.68a96.82,96.82,0,0,0,87.17,87.17V257.54A80.78,80.78,0,0,1,102.81,186.5Z" transform="translate(-86.14 -80.4)" style="fill: #39b54a;stroke: #231f20;stroke-miterlimit: 10"/>
  <path d="M263.28,186.5a80.79,80.79,0,0,1-71,71v16.13A96.81,96.81,0,0,0,279.4,186.5Z" transform="translate(-86.14 -80.4)" style="fill: #39b54a;stroke: #231f20;stroke-miterlimit: 10"/>
  <path d="M86.68,168.12h16.13a80.78,80.78,0,0,1,71-71V81A96.82,96.82,0,0,0,86.68,168.12Z" transform="translate(-86.14 -80.4)" style="fill: #39b54a;stroke: #231f20;stroke-miterlimit: 10"/>
  <path d="M192.23,81V97.08a80.79,80.79,0,0,1,71,71H279.4A96.81,96.81,0,0,0,192.23,81Z" transform="translate(-86.14 -80.4)" style="fill: #39b54a;stroke: #231f20;stroke-miterlimit: 10"/>
  <circle cx="97.18" cy="97.07" r="81.2" style="fill: #231f20;stroke: #231f20;stroke-miterlimit: 10"/>
</svg>
